<svg width="32" height="32" xmlns="http://www.w3.org/2000/svg">
 <g>
  <title>Layer 1</title>
  <g stroke="null" id="svg_1">
   <path stroke="null" id="svg_2" d="m10.39885,21.43771m-10.39882,0a10.39882,10.39882 0 1 0 20.79765,0a10.39882,10.39882 0 1 0 -20.79765,0z" fill="#DFDFF2" p-id="10860"/>
   <path stroke="null" id="svg_3" d="m27.59691,31.99652l-19.99774,0a4.4075,4.4075 0 0 1 -4.3995,-4.3995l0,-23.19738a4.4075,4.4075 0 0 1 4.3995,-4.3995l16.13418,0a2.78369,2.78369 0 0 1 1.97578,0.79991l5.92733,5.92733a1.19986,1.19986 0 0 1 0.35996,0.8719l0,19.99774a4.4075,4.4075 0 0 1 -4.3995,4.3995zm-19.99774,-29.59665a1.99977,1.99977 0 0 0 -1.99977,1.99977l0,23.19738a1.99977,1.99977 0 0 0 1.99977,1.99977l19.99774,0a1.99977,1.99977 0 0 0 1.99977,-1.99977l0,-19.50179l-5.59937,-5.59937a0.39995,0.39995 0 0 0 -0.26397,-0.09599l-16.13418,0z" fill="#1296db" p-id="10861" data-spm-anchor-id="a313x.7781069.0.i11" class="selected"/>
  </g>
  <text transform="matrix(1.79992 0 0 1.79992 -9.79497 -9.16559)" stroke="null" font-weight="bold" xml:space="preserve" text-anchor="start" font-family="'Spartan'" font-size="5" id="svg_6" y="15.96566" x="10.06739" stroke-width="0" fill="#1296db">URL</text>
 </g>

</svg>