<?xml version="1.0" standalone="no"?><!DOCTYPE svg PUBLIC "-//W3C//DTD SVG 1.1//EN" "http://www.w3.org/Graphics/SVG/1.1/DTD/svg11.dtd"><svg t="1641005887727" class="icon" viewBox="0 0 1024 1024" version="1.1" xmlns="http://www.w3.org/2000/svg" p-id="12776" width="20" height="20" xmlns:xlink="http://www.w3.org/1999/xlink"><defs><style type="text/css"></style></defs><path d="M904.162 466.858L678.726 281.587v136.226c-116.584 2.666-347.549 61.569-447.744 343.366 0 0 200.096-245.007 435.219-206.651l3.131 112.72 234.83-200.39z" fill="#ffffff" p-id="12777" data-spm-anchor-id="a313x.7781069.0.i25" class=""></path><path d="M401.846 461.819c-7.902 0-15.656-3.717-20.523-10.664-7.95-11.327-5.211-26.957 6.115-34.883 23.41-16.438 48.8-30.698 75.415-42.391 12.695-5.626 27.469 0.171 32.998 12.842 5.577 12.671-0.171 27.445-12.842 32.998-23.606 10.397-46.085 23.019-66.805 37.549a24.848 24.848 0 0 1-14.358 4.549z" fill="#e6e6e6" p-id="12778" data-spm-anchor-id="a313x.7781069.0.i22" class=""></path><path d="M205.835 820.084c-3.253 0-6.531-0.638-9.662-1.933-10.592-4.429-16.83-15.51-15.092-26.884 20.865-137.327 70.204-246.45 146.646-324.336 9.735-9.906 25.587-10.029 35.42-0.342 9.883 9.687 10.029 25.563 0.343 35.42-51.051 52.029-88.844 120.352-112.817 203.765 83.537-85.297 237.938-209.782 407.039-182.237 12.109 1.98 21.014 12.449 21.014 24.73v80.477l205.257-172.941-205.257-172.968v74.852c0 13.602-10.86 24.731-24.462 25.049a475.401 475.401 0 0 0-88.819 10.47c-13.502 2.984-26.834-5.675-29.745-19.227-2.911-13.527 5.7-26.834 19.227-29.745a525.63 525.63 0 0 1 73.702-10.445V228.971c0-9.736 5.65-18.616 14.481-22.725 8.807-4.086 19.251-2.74 26.712 3.571l269.174 226.832a25.05 25.05 0 0 1 8.904 19.154c0 7.387-3.253 14.407-8.904 19.152L669.821 701.763c-7.461 6.311-17.905 7.656-26.712 3.571a25.077 25.077 0 0 1-14.481-22.725V570.478c-210.173-15.558-400.753 236.885-402.71 239.527-4.843 6.507-12.353 10.079-20.083 10.079z" fill="#e6e6e6" p-id="12779" data-spm-anchor-id="a313x.7781069.0.i21" class=""></path></svg>