<?xml version="1.0" standalone="no"?><!DOCTYPE svg PUBLIC "-//W3C//DTD SVG 1.1//EN" "http://www.w3.org/Graphics/SVG/1.1/DTD/svg11.dtd"><svg t="1641264539451" class="icon" viewBox="0 0 1024 1024" version="1.1" xmlns="http://www.w3.org/2000/svg" p-id="3415" width="14" height="14" xmlns:xlink="http://www.w3.org/1999/xlink"><defs><style type="text/css"></style></defs><path d="M955.076923 610.461538h-59.076923c-15.753846 0-29.538462 15.753846-29.538462 29.538462v196.923077c0 15.753846-13.784615 29.538462-29.538461 29.538461h-649.846154c-15.753846 0-29.538462-13.784615-29.538461-29.538461v-196.923077c0-13.784615-13.784615-29.538462-29.538462-29.538462h-59.076923c-15.753846 0-29.538462 15.753846-29.538462 29.538462V905.846154c0 43.323077 35.446154 78.769231 78.769231 78.769231h787.692308c43.323077 0 78.769231-35.446154 78.769231-78.769231V640c0-13.784615-13.784615-29.538462-29.538462-29.538462zM531.692308 47.261538c-11.815385-11.815385-29.538462-11.815385-41.353846 0L224.492308 313.107692c-11.815385 11.815385-11.815385 29.538462 0 41.353846l41.353846 41.353847c11.815385 11.815385 29.538462 11.815385 41.353846 0l110.276923-110.276923c11.815385-11.815385 35.446154-3.938462 35.446154 13.784615v417.476923c0 15.753846 11.815385 29.538462 27.569231 29.538462h59.076923c15.753846 0 31.507692-15.753846 31.507692-29.538462V301.292308c0-17.723077 19.692308-25.6 33.476923-13.784616l110.276923 110.276923c11.815385 11.815385 29.538462 11.815385 41.353846 0l41.353847-41.353846c11.815385-11.815385 11.815385-29.538462 0-41.353846L531.692308 47.261538z" p-id="3416" fill="#909399"></path></svg>