<?xml version="1.0" standalone="no"?><!DOCTYPE svg PUBLIC "-//W3C//DTD SVG 1.1//EN" "http://www.w3.org/Graphics/SVG/1.1/DTD/svg11.dtd"><svg t="1641205267346" class="icon" viewBox="0 0 1024 1024" version="1.1" xmlns="http://www.w3.org/2000/svg" p-id="12360" width="20" height="20" xmlns:xlink="http://www.w3.org/1999/xlink"><defs><style type="text/css"></style></defs><path d="M763.424 841.152q0-14.848-10.848-25.728t-25.728-10.848-25.728 10.848-10.848 25.728 10.848 25.728 25.728 10.848 25.728-10.848 10.848-25.728zM909.728 841.152q0-14.848-10.848-25.728t-25.728-10.848-25.728 10.848-10.848 25.728 10.848 25.728 25.728 10.848 25.728-10.848 10.848-25.728zM982.848 713.152l0 182.848q0 22.848-16 38.848t-38.848 16l-841.152 0q-22.848 0-38.848-16t-16-38.848l0-182.848q0-22.848 16-38.848t38.848-16l244 0q12 32 40.288 52.576t63.136 20.576l146.272 0q34.848 0 63.136-20.576t40.288-52.576l244 0q22.848 0 38.848 16t16 38.848zM797.152 342.848q-9.728 22.848-33.728 22.848l-146.272 0 0 256q0 14.848-10.848 25.728t-25.728 10.848l-146.272 0q-14.848 0-25.728-10.848t-10.848-25.728l0-256-146.272 0q-24 0-33.728-22.848-9.728-22.272 8-39.424l256-256q10.272-10.848 25.728-10.848t25.728 10.848l256 256q17.728 17.152 8 39.424z" p-id="12361" fill="#ffffff"></path></svg>