<svg width="900" height="900" xmlns="http://www.w3.org/2000/svg" p-id="25284" version="1.1" class="icon" t="1642075620656">

  <g>
    <path id="svg_1" data-spm-anchor-id="a313x.7781069.0.i31" p-id="25285" fill="#5E9EFC" d="m800,379.20002l-387.9,0c-13.9,0 -27.1,-6.1 -36.1,-16.7l-93.4,-110.3c-18.4,-21.8 -12.8,-51.8 6.3,-67.4l-22.6,-25.8c-9,-10.3 -22,-16.1 -35.6,-16.1l-124.3,0c-26.1,0 -47.3,21.2 -47.3,47.3l0,551.7c0,26.1 21.2,47.3 47.3,47.3l693.6,0c26.1,0 47.3,-21.2 47.3,-47.3l0,-362.7c0,-8.6 -2.3,-16.7 -6.3,-23.6c-8.2,14.1 -23.5,23.6 -41,23.6z"/>
    <path id="svg_2" data-spm-anchor-id="a313x.7781069.0.i33" p-id="25286" fill="#12F4FF" d="m847.3,221.60002c0,-26.1 -21.2,-47.3 -47.3,-47.3l-481.3,0c-11.7,0 -21.9,4 -29.8,10.4l114.7,131c9,10.3 22,16.1 35.6,16.1l360.8,0c17.5,0 32.8,9.5 40.9,23.6c4,-7 6.3,-15 6.3,-23.6l0,-110.2l0.1,0z"/>
    <path id="svg_3" data-spm-anchor-id="a313x.7781069.0.i34" p-id="25287" fill="#0797FC" d="m800,331.90002l-360.8,0c-13.6,0 -26.6,-5.9 -35.6,-16.1l-114.7,-131c-19.2,15.6 -24.8,45.6 -6.3,67.4l93.4,110.3c9,10.6 22.2,16.7 36.1,16.7l387.9,0c17.5,0 32.8,-9.5 40.9,-23.6c-8.1,-14.2 -23.4,-23.7 -40.9,-23.7z"/>
    <path id="svg_4" data-spm-anchor-id="a313x.7781069.0.i35" p-id="25288" fill="#BFD8FE" d="m342.9,663.00002l-173.4,0c-17.4,0 -31.5,-14.1 -31.5,-31.5s14.1,-31.5 31.5,-31.5l173.4,0c17.4,0 31.5,14.1 31.5,31.5s-14.1,31.5 -31.5,31.5z"/>
  </g>
</svg>