<?xml version="1.0" standalone="no"?><!DOCTYPE svg PUBLIC "-//W3C//DTD SVG 1.1//EN" "http://www.w3.org/Graphics/SVG/1.1/DTD/svg11.dtd"><svg t="1640924265068" class="icon" viewBox="0 0 1024 1024" version="1.1" xmlns="http://www.w3.org/2000/svg" p-id="3521" width="20" height="20" xmlns:xlink="http://www.w3.org/1999/xlink"><defs><style type="text/css"></style></defs><path d="M1004.488 930.504c-13.04 13.04-28.664 19.576-46.936 19.576L292.912 950.08c-18.272 0-33.904-6.536-46.936-19.576-13-13.08-19.52-28.752-19.52-47.088L226.456 376.864c0-18.328 6.52-33.992 19.52-47.056 13.024-13.04 28.664-19.576 46.936-19.576l664.632 0c18.272 0 33.896 6.536 46.936 19.576 13 13.072 19.512 28.728 19.512 47.056l0 506.544C1024 901.752 1017.488 917.424 1004.488 930.504zM970.832 376.888c0-3.624-1.328-6.744-3.968-9.368-2.624-2.648-5.744-3.952-9.352-3.952L292.912 363.568c-3.608 0-6.728 1.304-9.344 3.952-2.624 2.64-3.944 5.744-3.944 9.368l0 506.56c0 3.584 1.32 6.712 3.944 9.336 2.648 2.656 5.736 3.976 9.344 3.976l664.6 0c3.608 0 6.728-1.32 9.352-3.976 2.64-2.624 3.968-5.752 3.968-9.336L970.832 376.888zM332.816 763.456 465.712 630.16l66.456 66.664 212.672-213.296 172.816 173.28 0 186.64L332.816 843.448 332.816 763.456zM412.56 576.824c-22.168 0-40.992-7.752-56.488-23.32-15.52-15.536-23.264-34.432-23.264-56.64 0-22.232 7.736-41.104 23.264-56.656 15.496-15.544 34.32-23.328 56.488-23.328 22.144 0 40.984 7.784 56.48 23.328 15.496 15.552 23.256 34.424 23.256 56.656 0 22.208-7.76 41.104-23.256 56.64C453.544 569.072 434.704 576.824 412.56 576.824zM852.68 258.736c0-3.616-1.32-6.736-3.968-9.368-2.624-2.656-5.744-3.952-9.344-3.952L174.76 245.416c-3.608 0-6.72 1.296-9.344 3.952-2.624 2.632-3.944 5.744-3.944 9.368l0 506.552c0 3.584 1.32 6.712 3.944 9.336 2.648 2.656 5.736 3.984 9.344 3.984l12.32 0 0 23.84c0 10.424 2.072 20.36 5.752 29.464l-18.072 0c-18.272 0-33.904-6.536-46.928-19.576-13.008-13.08-19.52-28.752-19.52-47.088L108.312 258.712c0-18.328 6.512-33.992 19.52-47.056 13.024-13.032 28.664-19.576 46.928-19.576l664.632 0c18.272 0 33.896 6.536 46.936 19.576 13 13.072 19.512 28.728 19.512 47.056l0 12.056-53.168 0L852.672 258.736zM744.376 140.584c0-3.624-1.328-6.744-3.968-9.368-2.624-2.648-5.744-3.944-9.352-3.944L66.456 127.272c-3.616 0-6.728 1.296-9.344 3.952-2.624 2.64-3.944 5.744-3.944 9.368l0 506.552c0 3.592 1.32 6.72 3.944 9.344 2.648 2.648 5.736 3.976 9.344 3.976l12.32 0 0 23.84c0 10.432 2.072 20.36 5.752 29.464L66.456 713.768c-18.272 0-33.904-6.528-46.936-19.568C6.52 681.12 0 665.448 0 647.112L0 140.56c0-18.328 6.52-33.992 19.52-47.056 13.024-13.04 28.664-19.576 46.936-19.576l664.632 0c18.272 0 33.896 6.536 46.928 19.576 13 13.072 19.52 28.728 19.52 47.056l0 12.056-53.168 0L744.368 140.584z" p-id="3522" fill="#bfcbd9"></path></svg>