<?xml version="1.0" standalone="no"?><!DOCTYPE svg PUBLIC "-//W3C//DTD SVG 1.1//EN" "http://www.w3.org/Graphics/SVG/1.1/DTD/svg11.dtd"><svg t="1641197557654" class="icon" viewBox="0 0 1024 1024" version="1.1" xmlns="http://www.w3.org/2000/svg" p-id="6434" width="20" height="20" xmlns:xlink="http://www.w3.org/1999/xlink"><defs><style type="text/css"></style></defs><path d="M659.698 80.02l152.325 88c15.296 8.837 20.537 28.408 11.706 43.713L812.21 231.7a100.054 100.054 0 0 0-0.858 98.475l5.708 10.304c17.612 31.794 51.078 51.52 87.406 51.521l23.275 0.001c17.662 0 31.98 14.327 31.98 32v176c0 17.673-14.318 32-31.98 32l-31.496 0.001c-35.03 0.001-67.503 18.356-85.587 48.376l-1.754 2.911c-18.78 31.175-19.147 70.098-0.959 101.622l15.784 27.357c8.83 15.305 3.59 34.876-11.706 43.712l-152.325 88c-15.296 8.837-34.855 3.593-43.686-11.712l-18.027-31.243C580.249 870.285 547.472 851.35 512 851.35c-35.472 0-68.25 18.935-85.985 49.673l-18.028 31.244c-8.831 15.305-28.39 20.549-43.686 11.712l-152.325-88c-15.296-8.836-20.537-28.407-11.706-43.712l15.784-27.357c18.188-31.524 17.82-70.447-0.96-101.622l-1.753-2.911c-18.084-30.02-50.557-48.375-85.587-48.376L96.259 632c-17.662 0-31.98-14.327-31.98-32V424c0-17.673 14.318-32 31.98-32h23.275c36.328-0.002 69.794-19.728 87.406-51.522l5.708-10.304a100.054 100.054 0 0 0-0.858-98.475l-11.519-19.966c-8.83-15.305-3.59-34.876 11.706-43.712l152.325-88c15.296-8.837 34.855-3.593 43.686 11.712l9.462 16.398c17.852 30.939 50.844 49.997 86.547 49.997h16.006c35.703 0 68.695-19.058 86.547-49.997l9.462-16.398c8.831-15.305 28.39-20.549 43.686-11.712z m-2.478 81.708c-32.227 42.752-82.897 68.4-137.217 68.4h-16.006c-54.32 0-104.99-25.648-137.217-68.4l-84.93 49.065c22.263 49.217 20.225 106.46-6.268 154.286l-5.708 10.304c-27.571 49.774-77.735 82.353-133.64 87.805v97.022l1.708 0.093c56.311 3.338 107.681 34.192 137.026 82.904l1.753 2.912c30.85 51.21 32.812 114.577 5.675 167.404l83.304 48.125c31.012-51.022 86.431-82.298 146.3-82.298 59.87 0 115.289 31.276 146.3 82.298l83.304-48.125-0.805-1.588c-26.29-52.505-24.06-115.118 6.48-165.816l1.753-2.912c29.345-48.712 80.715-79.566 137.026-82.904l1.708-0.093v-97.022c-55.905-5.452-106.069-38.03-133.64-87.805l-5.708-10.304c-26.493-47.826-28.531-105.07-6.268-154.286l-84.93-49.065zM504 352.1c88.366 0 160 71.59 160 159.9 0 17.662-14.327 31.98-32 31.98-17.673 0-32-14.318-32-31.98l-0.013-1.587C599.14 458.16 556.49 416.06 504 416.06c-53.02 0-96 42.954-96 95.94s42.98 95.94 96 95.94l0.53 0.004c17.428 0.283 31.47 14.49 31.47 31.976 0 17.662-14.327 31.98-32 31.98-88.366 0-160-71.59-160-159.9s71.634-159.9 160-159.9z" p-id="6435" fill="#606266"></path></svg>